SplineFontDB: 3.2
FontName: Freshman
FullName: Freshman
FamilyName: Freshman
Weight: Book
Copyright: A William Boyd Release. Free of Charge.
Version: 1.0 Mon Oct 04 06:34:30 1993
ItalicAngle: 0
UnderlinePosition: -75
UnderlineWidth: 50
Ascent: 800
Descent: 200
InvalidEm: 0
sfntRevision: 0x00010000
LayerCount: 2
Layer: 0 1 "Atr+AOEA-s" 1
Layer: 1 1 "Fore" 0
XUID: [1021 206 -1640239554 16147988]
StyleMap: 0x0040
FSType: 1
OS2Version: 0
OS2_WeightWidthSlopeOnly: 0
OS2_UseTypoMetrics: 0
CreationTime: -1333113930
ModificationTime: 1654848392
PfmFamily: 81
TTFWeight: 400
TTFWidth: 5
LineGap: 0
VLineGap: 0
Panose: 0 0 0 0 0 0 0 0 0 0
OS2TypoAscent: 850
OS2TypoAOffset: 0
OS2TypoDescent: 150
OS2TypoDOffset: 0
OS2TypoLinegap: 0
OS2WinAscent: 850
OS2WinAOffset: 0
OS2WinDescent: 151
OS2WinDOffset: 0
HheadAscent: 850
HheadAOffset: 0
HheadDescent: -151
HheadDOffset: 0
OS2SubXSize: 700
OS2SubYSize: 650
OS2SubXOff: 0
OS2SubYOff: 143
OS2SupXSize: 700
OS2SupYSize: 650
OS2SupXOff: 0
OS2SupYOff: 453
OS2StrikeYSize: 50
OS2StrikeYPos: 259
OS2Vendor: 'Alts'
OS2UnicodeRanges: 00000000.00000000.00000000.00000000
Lookup: 258 0 0 "'kern' Horizontal Kerning in Latin lookup 0" { "'kern' Horizontal Kerning in Latin lookup 0 subtable"  } ['kern' ('DFLT' <'dflt' > 'latn' <'dflt' > ) ]
DEI: 91125
TtTable: prep
NPUSHB
 14
 14
 14
 13
 13
 7
 7
 1
 1
 0
 0
 10
 10
 69
 1
SCANTYPE
PUSHW_1
 511
SCANCTRL
SROUND
RCVT
ROUND[Grey]
WCVTP
RTG
PUSHB_4
 2
 7
 70
 0
CALL
PUSHB_4
 3
 1
 70
 0
CALL
PUSHB_4
 4
 7
 70
 0
CALL
PUSHB_4
 5
 7
 70
 0
CALL
PUSHB_4
 6
 0
 70
 0
CALL
PUSHB_4
 8
 1
 70
 0
CALL
PUSHB_4
 9
 1
 70
 0
CALL
PUSHB_4
 11
 7
 70
 0
CALL
PUSHB_4
 12
 7
 70
 0
CALL
RCVT
ROUND[Grey]
WCVTP
RCVT
ROUND[Grey]
WCVTP
RCVT
ROUND[Grey]
WCVTP
RCVT
ROUND[Grey]
WCVTP
RCVT
ROUND[Grey]
WCVTP
EndTTInstrs
TtTable: fpgm
NPUSHB
 5
 5
 4
 3
 2
 0
FDEF
SROUND
RCVT
DUP
PUSHB_1
 3
CINDEX
RCVT
SWAP
SUB
ROUND[Grey]
RTG
SWAP
ROUND[Grey]
ADD
WCVTP
ENDF
FDEF
RCVT
DUP
PUSHB_1
 3
CINDEX
RCVT
SWAP
SUB
ROUND[Grey]
SWAP

StartChar: .notdef
Encoding: 65536 -1 0
Width: 850
GlyphClass: 1
Flags: W
LayerCount: 2
Fore
SplineSet
53 0 m 1,0,-1
 53 850 l 1,1,-1
 797 850 l 1,2,-1
 797 0 l 1,3,-1
 53 0 l 1,0,-1
744 53 m 1,4,-1
 744 797 l 1,5,-1
 106 797 l 1,6,-1
 106 53 l 1,7,-1
 744 53 l 1,4,-1
EndSplineSet
Validated: 1
EndChar

StartChar: exclam
Encoding: 33 33 4
Width: 285
GlyphClass: 1
Flags: W
LayerCount: 2
Fore
SplineSet
227 250 m 1,0,-1
 -2 250 l 1,1,-1
 -2 833 l 1,2,-1
 227 833 l 1,3,-1
 227 250 l 1,0,-1
227 0 m 1,4,-1
 -2 0 l 1,5,-1
 -2 188 l 1,6,-1
 227 188 l 1,7,-1
 227 0 l 1,4,-1
EndSplineSet
Validated: 1
EndChar

StartChar: quotedbl
Encoding: 34 34 5
Width: 354
GlyphClass: 1
Flags: W
LayerCount: 2
Fore
SplineSet
131 596 m 1,0,-1
 -2 596 l 1,1,-1
 -2 834 l 1,2,-1
 131 834 l 1,3,-1
 131 596 l 1,0,-1
310 596 m 1,4,-1
 177 596 l 1,5,-1
 177 834 l 1,6,-1
 310 834 l 1,7,-1
 310 596 l 1,4,-1
EndSplineSet
Validated: 1
EndChar

StartChar: numbersign
Encoding: 35 35 6
Width: 806
GlyphClass: 1
Flags: W
LayerCount: 2
Fore
SplineSet
415 317 m 1,0,-1
 331 317 l 1,1,-1
 331 200 l 1,2,-1
 148 200 l 1,3,-1
 148 317 l 1,4,-1
 -2 317 l 1,5,-1
 -2 467 l 1,6,-1
 148 467 l 1,7,-1
 148 567 l 1,8,-1
 -2 567 l 1,9,-1
 -2 717 l 1,10,-1
 148 717 l 1,11,-1
 148 833 l 1,12,-1
 331 833 l 1,13,-1
 331 717 l 1,14,-1
 415 717 l 1,15,-1
 415 833 l 1,16,-1
 598 833 l 1,17,-1
 598 717 l 1,18,-1
 748 717 l 1,19,-1
 748 567 l 1,20,-1
 598 567 l 1,21,-1
 598 467 l 1,22,-1
 748 467 l 1,23,-1
 748 317 l 1,24,-1
 598 317 l 1,25,-1
 598 200 l 1,26,-1
 415 200 l 1,27,-1
 415 317 l 1,0,-1
415 567 m 1,28,-1
 331 567 l 1,29,-1
 331 467 l 1,30,-1
 415 467 l 1,31,-1
 415 567 l 1,28,-1
EndSplineSet
Validated: 1
EndChar

StartChar: dollar
Encoding: 36 36 7
Width: 689
GlyphClass: 1
Flags: W
LayerCount: 2
Fore
SplineSet
196 780 m 1,0,-1
 196 833 l 1,1,-1
 305 833 l 1,2,-1
 305 780 l 1,3,-1
 330 780 l 1,4,-1
 330 833 l 1,5,-1
 438 833 l 1,6,-1
 438 780 l 1,7,-1
 498 780 l 1,8,-1
 631 647 l 1,9,-1
 631 518 l 1,10,-1
 402 518 l 1,11,-1
 402 600 l 1,12,-1
 376 627 l 1,13,-1
 254 627 l 1,14,-1
 227 601 l 1,15,-1
 227 517 l 1,16,-1
 254 490 l 1,17,-1
 498 490 l 1,18,-1
 631 357 l 1,19,-1
 631 187 l 1,20,-1
 498 53 l 1,21,-1
 438 53 l 1,22,-1
 438 0 l 1,23,-1
 330 0 l 1,24,-1
 330 53 l 1,25,-1
 305 53 l 1,26,-1
 305 0 l 1,27,-1
 196 0 l 1,28,-1
 196 53 l 1,29,-1
 131 53 l 1,30,-1
 -2 187 l 1,31,-1
 -2 312 l 1,32,-1
 227 312 l 1,33,-1
 227 233 l 1,34,-1
 254 206 l 1,35,-1
 376 206 l 1,36,-1
 402 233 l 1,37,-1
 402 313 l 1,38,-1
 376 339 l 1,39,-1
 131 339 l 1,40,-1
 -2 473 l 1,41,-1
 -2 647 l 1,42,-1
 131 780 l 1,43,-1
 196 780 l 1,0,-1
EndSplineSet
Validated: 1
EndChar

StartChar: ampersand
Encoding: 38 38 8
Width: 689
GlyphClass: 1
Flags: W
LayerCount: 2
Fore
SplineSet
498 780 m 1,0,-1
 631 647 l 1,1,-1
 631 508 l 1,2,-1
 402 508 l 1,3,-1
 402 565 l 1,4,-1
 376 592 l 1,5,-1
 254 592 l 1,6,-1
 227 566 l 1,7,-1
 227 528 l 1,8,-1
 254 501 l 1,9,-1
 357 501 l 1,10,-1
 357 332 l 1,11,-1
 254 332 l 1,12,-1
 227 306 l 1,13,-1
 227 268 l 1,14,-1
 254 241 l 1,15,-1
 376 241 l 1,16,-1
 402 268 l 1,17,-1
 402 308 l 1,18,-1
 631 308 l 1,19,-1
 631 187 l 1,20,-1
 498 53 l 1,21,-1
 409 53 l 1,22,-1
 409 0 l 1,23,-1
 221 0 l 1,24,-1
 221 53 l 1,25,-1
 131 53 l 1,26,-1
 -2 187 l 1,27,-1
 -2 381 l 1,28,-1
 34 417 l 1,29,-1
 -2 453 l 1,30,-1
 -2 647 l 1,31,-1
 131 780 l 1,32,-1
 221 780 l 1,33,-1
 221 833 l 1,34,-1
 409 833 l 1,35,-1
 409 780 l 1,36,-1
 498 780 l 1,0,-1
EndSplineSet
Validated: 1
EndChar

StartChar: quotesingle
Encoding: 39 39 9
Width: 175
GlyphClass: 1
Flags: W
LayerCount: 2
Fore
SplineSet
131 596 m 1,0,-1
 -2 596 l 1,1,-1
 -2 834 l 1,2,-1
 131 834 l 1,3,-1
 131 596 l 1,0,-1
EndSplineSet
Validated: 1
EndChar

StartChar: comma
Encoding: 44 44 10
Width: 285
GlyphClass: 1
Flags: W
LayerCount: 2
Fore
SplineSet
-2 0 m 1,0,-1
 -2 188 l 1,1,-1
 227 188 l 1,2,-1
 227 1 l 1,3,-1
 76 -151 l 1,4,-1
 76 0 l 1,5,-1
 -2 0 l 1,0,-1
EndSplineSet
Validated: 1
EndChar

StartChar: hyphen
Encoding: 45 45 11
Width: 388
GlyphClass: 1
Flags: W
LayerCount: 2
Fore
SplineSet
-2 323 m 1,0,-1
 -2 511 l 1,1,-1
 327 511 l 1,2,-1
 327 323 l 1,3,-1
 -2 323 l 1,0,-1
EndSplineSet
Validated: 1
EndChar

StartChar: period
Encoding: 46 46 12
Width: 271
GlyphClass: 1
Flags: W
LayerCount: 2
Fore
SplineSet
210 0 m 1,0,-1
 -2 0 l 1,1,-1
 -2 213 l 1,2,-1
 210 213 l 1,3,-1
 210 0 l 1,0,-1
EndSplineSet
Validated: 1
EndChar

StartChar: slash
Encoding: 47 47 13
Width: 658
GlyphClass: 1
Flags: W
LayerCount: 2
Fore
SplineSet
-2 0 m 1,0,-1
 415 833 l 1,1,-1
 644 833 l 1,2,-1
 227 0 l 1,3,-1
 -2 0 l 1,0,-1
EndSplineSet
Validated: 1
EndChar

StartChar: zero
Encoding: 48 48 14
Width: 694
GlyphClass: 1
Flags: W
LayerCount: 2
Fore
SplineSet
-2 700 m 1,0,-1
 131 834 l 1,1,-1
 498 834 l 1,2,-1
 631 700 l 1,3,-1
 631 133 l 1,4,-1
 498 0 l 1,5,-1
 131 0 l 1,6,-1
 -2 133 l 1,7,-1
 -2 700 l 1,0,-1
402 619 m 1,8,-1
 376 646 l 1,9,-1
 254 646 l 1,10,-1
 227 619 l 1,11,-1
 227 214 l 1,12,-1
 254 188 l 1,13,-1
 376 188 l 1,14,-1
 402 214 l 1,15,-1
 402 619 l 1,8,-1
EndSplineSet
Validated: 1
EndChar

StartChar: one
Encoding: 49 49 15
Width: 459
GlyphClass: 1
Flags: W
LayerCount: 2
Fore
SplineSet
102 546 m 1,0,-1
 -2 546 l 1,1,-1
 -2 678 l 1,2,-1
 153 833 l 1,3,-1
 331 833 l 1,4,-1
 331 188 l 1,5,-1
 415 188 l 1,6,-1
 415 0 l 1,7,-1
 -2 0 l 1,8,-1
 -2 188 l 1,9,-1
 102 188 l 1,10,-1
 102 546 l 1,0,-1
EndSplineSet
Validated: 1
EndChar

StartChar: two
Encoding: 50 50 16
Width: 656
GlyphClass: 1
Flags: W
LayerCount: 2
Fore
SplineSet
334 216 m 1,0,-1
 598 216 l 1,1,-1
 598 0 l 1,2,-1
 -2 0 l 1,3,-1
 -2 194 l 1,4,-1
 369 565 l 1,5,-1
 369 619 l 1,6,-1
 342 646 l 1,7,-1
 254 646 l 1,8,-1
 227 619 l 1,9,-1
 227 535 l 1,10,-1
 -2 535 l 1,11,-1
 -2 700 l 1,12,-1
 131 834 l 1,13,-1
 465 834 l 1,14,-1
 598 700 l 1,15,-1
 598 480 l 1,16,-1
 334 216 l 1,0,-1
EndSplineSet
Validated: 1
EndChar

StartChar: three
Encoding: 51 51 17
Width: 689
GlyphClass: 1
Flags: W
LayerCount: 2
Fore
SplineSet
272 513 m 1,0,-1
 376 513 l 1,1,-1
 402 539 l 1,2,-1
 402 619 l 1,3,-1
 376 646 l 1,4,-1
 254 646 l 1,5,-1
 227 619 l 1,6,-1
 227 562 l 1,7,-1
 -2 562 l 1,8,-1
 -2 700 l 1,9,-1
 131 834 l 1,10,-1
 498 834 l 1,11,-1
 631 700 l 1,12,-1
 631 453 l 1,13,-1
 596 417 l 1,14,-1
 631 381 l 1,15,-1
 631 133 l 1,16,-1
 498 0 l 1,17,-1
 131 0 l 1,18,-1
 -2 133 l 1,19,-1
 -2 255 l 1,20,-1
 227 255 l 1,21,-1
 227 215 l 1,22,-1
 254 188 l 1,23,-1
 376 188 l 1,24,-1
 402 214 l 1,25,-1
 402 294 l 1,26,-1
 376 321 l 1,27,-1
 272 321 l 1,28,-1
 272 513 l 1,0,-1
EndSplineSet
Validated: 1
EndChar

StartChar: four
Encoding: 52 52 18
Width: 671
GlyphClass: 1
Flags: W
LayerCount: 2
Fore
SplineSet
582 8 m 1,0,-1
 270 8 l 1,1,-1
 270 179 l 1,2,-1
 320 179 l 1,3,-1
 320 258 l 1,4,-1
 6 258 l 1,5,-1
 6 491 l 1,6,-1
 341 825 l 1,7,-1
 532 825 l 1,8,-1
 532 429 l 1,9,-1
 619 429 l 1,10,-1
 619 258 l 1,11,-1
 532 258 l 1,12,-1
 532 179 l 1,13,-1
 582 179 l 1,14,-1
 582 8 l 1,0,-1
311 563 m 1,15,-1
 186 438 l 1,16,-1
 311 438 l 1,17,-1
 311 563 l 1,15,-1
EndSplineSet
Validated: 1
EndChar

StartChar: five
Encoding: 53 53 19
Width: 689
GlyphClass: 1
Flags: W
LayerCount: 2
Fore
SplineSet
227 598 m 1,0,-1
 254 572 l 1,1,-1
 506 572 l 1,2,-1
 631 447 l 1,3,-1
 631 133 l 1,4,-1
 498 0 l 1,5,-1
 131 0 l 1,6,-1
 -2 133 l 1,7,-1
 -2 282 l 1,8,-1
 227 282 l 1,9,-1
 227 215 l 1,10,-1
 254 188 l 1,11,-1
 376 188 l 1,12,-1
 402 214 l 1,13,-1
 402 358 l 1,14,-1
 376 385 l 1,15,-1
 131 385 l 1,16,-1
 -2 518 l 1,17,-1
 -2 834 l 1,18,-1
 631 834 l 1,19,-1
 631 646 l 1,20,-1
 227 646 l 1,21,-1
 227 598 l 1,0,-1
EndSplineSet
Validated: 1
EndChar

StartChar: six
Encoding: 54 54 20
Width: 689
GlyphClass: 1
Flags: W
LayerCount: 2
Fore
SplineSet
227 500 m 1,0,-1
 498 500 l 1,1,-1
 631 367 l 1,2,-1
 631 133 l 1,3,-1
 498 0 l 1,4,-1
 131 0 l 1,5,-1
 -2 133 l 1,6,-1
 -2 700 l 1,7,-1
 131 834 l 1,8,-1
 498 834 l 1,9,-1
 631 700 l 1,10,-1
 631 564 l 1,11,-1
 402 564 l 1,12,-1
 402 619 l 1,13,-1
 376 646 l 1,14,-1
 254 646 l 1,15,-1
 227 619 l 1,16,-1
 227 500 l 1,0,-1
227 286 m 1,17,-1
 227 214 l 1,18,-1
 254 188 l 1,19,-1
 376 188 l 1,20,-1
 402 214 l 1,21,-1
 402 286 l 1,22,-1
 376 312 l 1,23,-1
 254 312 l 1,24,-1
 227 286 l 1,17,-1
EndSplineSet
Validated: 1
EndChar

StartChar: seven
Encoding: 55 55 21
Width: 659
GlyphClass: 1
Flags: W
LayerCount: 2
Fore
SplineSet
616 673 m 1,0,-1
 366 0 l 1,1,-1
 126 0 l 1,2,-1
 366 646 l 1,3,-1
 185 646 l 1,4,-1
 185 596 l 1,5,-1
 -2 596 l 1,6,-1
 -2 834 l 1,7,-1
 616 834 l 1,8,-1
 616 673 l 1,0,-1
EndSplineSet
Validated: 1
EndChar

StartChar: eight
Encoding: 56 56 22
Width: 704
GlyphClass: 1
Flags: W
LayerCount: 2
Fore
SplineSet
594 417 m 1,0,-1
 646 364 l 1,1,-1
 646 133 l 1,2,-1
 512 0 l 1,3,-1
 148 0 l 1,4,-1
 15 133 l 1,5,-1
 15 364 l 1,6,-1
 67 417 l 1,7,-1
 15 469 l 1,8,-1
 15 700 l 1,9,-1
 148 834 l 1,10,-1
 512 834 l 1,11,-1
 646 700 l 1,12,-1
 646 469 l 1,13,-1
 594 417 l 1,0,-1
281 322 m 1,14,-1
 255 296 l 1,15,-1
 255 214 l 1,16,-1
 281 188 l 1,17,-1
 379 188 l 1,18,-1
 406 214 l 1,19,-1
 406 296 l 1,20,-1
 379 322 l 1,21,-1
 281 322 l 1,14,-1
281 646 m 1,22,-1
 255 619 l 1,23,-1
 255 538 l 1,24,-1
 281 511 l 1,25,-1
 379 511 l 1,26,-1
 406 538 l 1,27,-1
 406 619 l 1,28,-1
 379 646 l 1,29,-1
 281 646 l 1,22,-1
EndSplineSet
Validated: 1
EndChar

StartChar: nine
Encoding: 57 57 23
Width: 708
GlyphClass: 1
Flags: W
LayerCount: 2
Fore
SplineSet
421 333 m 1,0,-1
 132 333 l 1,1,-1
 -2 467 l 1,2,-1
 -2 700 l 1,3,-1
 131 834 l 1,4,-1
 516 834 l 1,5,-1
 650 700 l 1,6,-1
 650 133 l 1,7,-1
 516 0 l 1,8,-1
 131 0 l 1,9,-1
 -2 133 l 1,10,-1
 -2 268 l 1,11,-1
 227 268 l 1,12,-1
 227 215 l 1,13,-1
 254 188 l 1,14,-1
 394 188 l 1,15,-1
 421 214 l 1,16,-1
 421 333 l 1,0,-1
254 646 m 1,17,-1
 227 619 l 1,18,-1
 227 548 l 1,19,-1
 254 521 l 1,20,-1
 394 521 l 1,21,-1
 421 548 l 1,22,-1
 421 619 l 1,23,-1
 394 646 l 1,24,-1
 254 646 l 1,17,-1
EndSplineSet
Validated: 1
EndChar

StartChar: colon
Encoding: 58 58 24
Width: 285
GlyphClass: 1
Flags: W
LayerCount: 2
Fore
SplineSet
227 0 m 1,0,-1
 -2 0 l 1,1,-1
 -2 188 l 1,2,-1
 227 188 l 1,3,-1
 227 0 l 1,0,-1
227 479 m 1,4,-1
 -2 479 l 1,5,-1
 -2 667 l 1,6,-1
 227 667 l 1,7,-1
 227 479 l 1,4,-1
EndSplineSet
Validated: 1
EndChar

StartChar: semicolon
Encoding: 59 59 25
Width: 285
GlyphClass: 1
Flags: W
LayerCount: 2
Fore
SplineSet
227 479 m 1,0,-1
 -2 479 l 1,1,-1
 -2 667 l 1,2,-1
 227 667 l 1,3,-1
 227 479 l 1,0,-1
-2 0 m 1,4,-1
 -2 188 l 1,5,-1
 227 188 l 1,6,-1
 227 1 l 1,7,-1
 76 -151 l 1,8,-1
 76 0 l 1,9,-1
 -2 0 l 1,4,-1
EndSplineSet
Validated: 1
EndChar

StartChar: question
Encoding: 63 63 26
Width: 631
GlyphClass: 1
Flags: W
LayerCount: 2
Fore
SplineSet
160 228 m 1,0,-1
 160 369 l 1,1,-1
 346 555 l 1,2,-1
 346 603 l 1,3,-1
 319 629 l 1,4,-1
 254 629 l 1,5,-1
 227 603 l 1,6,-1
 227 535 l 1,7,-1
 -2 535 l 1,8,-1
 -2 700 l 1,9,-1
 131 834 l 1,10,-1
 440 834 l 1,11,-1
 573 701 l 1,12,-1
 573 478 l 1,13,-1
 411 316 l 1,14,-1
 411 228 l 1,15,-1
 160 228 l 1,0,-1
410 0 m 1,16,-1
 160 0 l 1,17,-1
 160 188 l 1,18,-1
 411 188 l 1,19,-1
 410 0 l 1,16,-1
EndSplineSet
Validated: 1
EndChar

StartChar: A
Encoding: 65 65 27
Width: 873
GlyphClass: 1
Flags: W
LayerCount: 2
Fore
SplineSet
638 834 m 1,0,-1
 638 646 l 1,1,-1
 596 646 l 1,2,-1
 779 188 l 1,3,-1
 829 188 l 1,4,-1
 829 0 l 1,5,-1
 509 0 l 1,6,-1
 509 188 l 1,7,-1
 536 188 l 1,8,-1
 524 225 l 1,9,-1
 303 225 l 1,10,-1
 290 188 l 1,11,-1
 317 188 l 1,12,-1
 317 0 l 1,13,-1
 -2 0 l 1,14,-1
 -2 188 l 1,15,-1
 48 188 l 1,16,-1
 231 646 l 1,17,-1
 195 646 l 1,18,-1
 195 834 l 1,19,-1
 638 834 l 1,0,-1
360 385 m 1,20,-1
 466 385 l 1,21,-1
 413 517 l 1,22,-1
 360 385 l 1,20,-1
EndSplineSet
Validated: 1
EndChar

StartChar: B
Encoding: 66 66 28
Width: 704
GlyphClass: 1
Flags: W
LayerCount: 2
Fore
SplineSet
647 377 m 1,0,-1
 647 133 l 1,1,-1
 514 0 l 1,2,-1
 -2 0 l 1,3,-1
 -2 188 l 1,4,-1
 48 188 l 1,5,-1
 48 646 l 1,6,-1
 -2 646 l 1,7,-1
 -2 834 l 1,8,-1
 514 834 l 1,9,-1
 647 700 l 1,10,-1
 647 487 l 1,11,-1
 592 432 l 1,12,-1
 647 377 l 1,0,-1
418 311 m 1,13,-1
 391 337 l 1,14,-1
 277 337 l 1,15,-1
 277 188 l 1,16,-1
 391 188 l 1,17,-1
 418 214 l 1,18,-1
 418 311 l 1,13,-1
418 619 m 1,19,-1
 391 646 l 1,20,-1
 277 646 l 1,21,-1
 277 525 l 1,22,-1
 391 525 l 1,23,-1
 418 552 l 1,24,-1
 418 619 l 1,19,-1
EndSplineSet
Validated: 1
EndChar

StartChar: C
Encoding: 67 67 29
Width: 694
GlyphClass: 1
Flags: W
LayerCount: 2
Fore
SplineSet
631 513 m 1,0,-1
 402 513 l 1,1,-1
 402 619 l 1,2,-1
 376 646 l 1,3,-1
 254 646 l 1,4,-1
 227 619 l 1,5,-1
 227 214 l 1,6,-1
 254 188 l 1,7,-1
 376 188 l 1,8,-1
 402 214 l 1,9,-1
 402 314 l 1,10,-1
 631 314 l 1,11,-1
 631 133 l 1,12,-1
 498 0 l 1,13,-1
 131 0 l 1,14,-1
 -2 133 l 1,15,-1
 -2 700 l 1,16,-1
 131 834 l 1,17,-1
 498 834 l 1,18,-1
 631 700 l 1,19,-1
 631 513 l 1,0,-1
EndSplineSet
Validated: 1
EndChar

StartChar: D
Encoding: 68 68 30
Width: 710
GlyphClass: 1
Flags: W
LayerCount: 2
Fore
SplineSet
-2 834 m 1,0,-1
 514 834 l 1,1,-1
 647 700 l 1,2,-1
 647 133 l 1,3,-1
 514 0 l 1,4,-1
 -2 0 l 1,5,-1
 -2 188 l 1,6,-1
 48 188 l 1,7,-1
 48 646 l 1,8,-1
 -2 646 l 1,9,-1
 -2 834 l 1,0,-1
277 188 m 1,10,-1
 391 188 l 1,11,-1
 418 214 l 1,12,-1
 418 619 l 1,13,-1
 391 646 l 1,14,-1
 277 646 l 1,15,-1
 277 188 l 1,10,-1
EndSplineSet
Validated: 1
EndChar

StartChar: E
Encoding: 69 69 31
Width: 669
GlyphClass: 1
Flags: W
LayerCount: 2
Fore
SplineSet
277 188 m 1,0,-1
 423 188 l 1,1,-1
 423 221 l 1,2,-1
 611 221 l 1,3,-1
 611 0 l 1,4,-1
 -2 0 l 1,5,-1
 -2 188 l 1,6,-1
 48 188 l 1,7,-1
 48 646 l 1,8,-1
 -2 646 l 1,9,-1
 -2 834 l 1,10,-1
 611 834 l 1,11,-1
 611 613 l 1,12,-1
 423 613 l 1,13,-1
 423 646 l 1,14,-1
 277 646 l 1,15,-1
 277 510 l 1,16,-1
 311 510 l 1,17,-1
 311 543 l 1,18,-1
 498 543 l 1,19,-1
 498 290 l 1,20,-1
 311 290 l 1,21,-1
 311 323 l 1,22,-1
 277 323 l 1,23,-1
 277 188 l 1,0,-1
EndSplineSet
Validated: 1
EndChar

StartChar: F
Encoding: 70 70 32
Width: 654
GlyphClass: 1
Flags: W
LayerCount: 2
Fore
SplineSet
311 323 m 1,0,-1
 277 323 l 1,1,-1
 277 188 l 1,2,-1
 373 188 l 1,3,-1
 373 0 l 1,4,-1
 -2 0 l 1,5,-1
 -2 188 l 1,6,-1
 48 188 l 1,7,-1
 48 646 l 1,8,-1
 -2 646 l 1,9,-1
 -2 834 l 1,10,-1
 611 834 l 1,11,-1
 611 613 l 1,12,-1
 423 613 l 1,13,-1
 423 646 l 1,14,-1
 277 646 l 1,15,-1
 277 510 l 1,16,-1
 311 510 l 1,17,-1
 311 543 l 1,18,-1
 498 543 l 1,19,-1
 498 290 l 1,20,-1
 311 290 l 1,21,-1
 311 323 l 1,0,-1
EndSplineSet
Validated: 1
EndChar

StartChar: G
Encoding: 71 71 33
Width: 696
GlyphClass: 1
Flags: W
LayerCount: 2
Fore
SplineSet
631 463 m 1,0,-1
 631 133 l 1,1,-1
 498 0 l 1,2,-1
 131 0 l 1,3,-1
 -2 133 l 1,4,-1
 -2 700 l 1,5,-1
 131 834 l 1,6,-1
 498 834 l 1,7,-1
 631 700 l 1,8,-1
 631 514 l 1,9,-1
 402 514 l 1,10,-1
 402 619 l 1,11,-1
 376 646 l 1,12,-1
 254 646 l 1,13,-1
 227 619 l 1,14,-1
 227 214 l 1,15,-1
 254 188 l 1,16,-1
 376 188 l 1,17,-1
 402 214 l 1,18,-1
 402 292 l 1,19,-1
 339 292 l 1,20,-1
 339 463 l 1,21,-1
 631 463 l 1,0,-1
EndSplineSet
Validated: 1
EndChar

StartChar: H
Encoding: 72 72 34
Width: 777
GlyphClass: 1
Flags: W
LayerCount: 2
Fore
SplineSet
440 188 m 1,0,-1
 440 326 l 1,1,-1
 277 326 l 1,2,-1
 277 188 l 1,3,-1
 327 188 l 1,4,-1
 327 0 l 1,5,-1
 -2 0 l 1,6,-1
 -2 188 l 1,7,-1
 48 188 l 1,8,-1
 48 646 l 1,9,-1
 -2 646 l 1,10,-1
 -2 834 l 1,11,-1
 327 834 l 1,12,-1
 327 646 l 1,13,-1
 277 646 l 1,14,-1
 277 532 l 1,15,-1
 440 532 l 1,16,-1
 440 646 l 1,17,-1
 390 646 l 1,18,-1
 390 834 l 1,19,-1
 719 834 l 1,20,-1
 719 646 l 1,21,-1
 669 646 l 1,22,-1
 669 188 l 1,23,-1
 719 188 l 1,24,-1
 719 0 l 1,25,-1
 390 0 l 1,26,-1
 390 188 l 1,27,-1
 440 188 l 1,0,-1
EndSplineSet
Validated: 1
EndChar

StartChar: I
Encoding: 73 73 35
Width: 385
GlyphClass: 1
Flags: W
LayerCount: 2
Fore
SplineSet
327 0 m 1,0,-1
 -2 0 l 1,1,-1
 -2 188 l 1,2,-1
 48 188 l 1,3,-1
 48 646 l 1,4,-1
 -2 646 l 1,5,-1
 -2 834 l 1,6,-1
 327 834 l 1,7,-1
 327 646 l 1,8,-1
 277 646 l 1,9,-1
 277 188 l 1,10,-1
 327 188 l 1,11,-1
 327 0 l 1,0,-1
EndSplineSet
Validated: 1
EndChar

StartChar: J
Encoding: 74 74 36
Width: 677
GlyphClass: 1
Flags: W
LayerCount: 2
Fore
SplineSet
569 647 m 1,0,-1
 569 134 l 1,1,-1
 436 0 l 1,2,-1
 131 0 l 1,3,-1
 -2 133 l 1,4,-1
 -2 335 l 1,5,-1
 227 335 l 1,6,-1
 227 215 l 1,7,-1
 254 188 l 1,8,-1
 313 188 l 1,9,-1
 340 214 l 1,10,-1
 340 646 l 1,11,-1
 269 646 l 1,12,-1
 269 834 l 1,13,-1
 619 834 l 1,14,-1
 619 647 l 1,15,-1
 569 647 l 1,0,-1
EndSplineSet
Validated: 1
EndChar

StartChar: K
Encoding: 75 75 37
Width: 811
GlyphClass: 1
Flags: W
LayerCount: 2
Fore
SplineSet
277 188 m 1,0,-1
 327 188 l 1,1,-1
 327 0 l 1,2,-1
 -2 0 l 1,3,-1
 -2 188 l 1,4,-1
 48 188 l 1,5,-1
 48 646 l 1,6,-1
 -2 646 l 1,7,-1
 -2 834 l 1,8,-1
 327 834 l 1,9,-1
 327 646 l 1,10,-1
 277 646 l 1,11,-1
 277 528 l 1,12,-1
 396 646 l 1,13,-1
 374 646 l 1,14,-1
 374 834 l 1,15,-1
 770 834 l 1,16,-1
 770 647 l 1,17,-1
 701 647 l 1,18,-1
 475 420 l 1,19,-1
 707 188 l 1,20,-1
 770 188 l 1,21,-1
 770 0 l 1,22,-1
 374 0 l 1,23,-1
 374 188 l 1,24,-1
 397 188 l 1,25,-1
 316 268 l 1,26,-1
 277 228 l 1,27,-1
 277 188 l 1,0,-1
EndSplineSet
Validated: 1
EndChar

StartChar: L
Encoding: 76 76 38
Width: 659
GlyphClass: 1
Flags: W
LayerCount: 2
Fore
SplineSet
277 646 m 1,0,-1
 277 188 l 1,1,-1
 427 188 l 1,2,-1
 427 238 l 1,3,-1
 614 238 l 1,4,-1
 614 0 l 1,5,-1
 -2 0 l 1,6,-1
 -2 188 l 1,7,-1
 48 188 l 1,8,-1
 48 646 l 1,9,-1
 -2 646 l 1,10,-1
 -2 834 l 1,11,-1
 327 834 l 1,12,-1
 327 646 l 1,13,-1
 277 646 l 1,0,-1
EndSplineSet
Validated: 1
EndChar

StartChar: M
Encoding: 77 77 39
Width: 978
GlyphClass: 1
Flags: W
LayerCount: 2
Fore
SplineSet
459 103 m 1,0,-1
 277 404 l 1,1,-1
 277 188 l 1,2,-1
 327 188 l 1,3,-1
 327 0 l 1,4,-1
 -2 0 l 1,5,-1
 -2 188 l 1,6,-1
 48 188 l 1,7,-1
 48 646 l 1,8,-1
 -2 646 l 1,9,-1
 -2 834 l 1,10,-1
 266 834 l 1,11,-1
 459 511 l 1,12,-1
 652 834 l 1,13,-1
 920 834 l 1,14,-1
 920 646 l 1,15,-1
 870 646 l 1,16,-1
 870 188 l 1,17,-1
 920 188 l 1,18,-1
 920 0 l 1,19,-1
 591 0 l 1,20,-1
 591 188 l 1,21,-1
 641 188 l 1,22,-1
 641 404 l 1,23,-1
 459 103 l 1,0,-1
EndSplineSet
Validated: 1
EndChar

StartChar: N
Encoding: 78 78 40
Width: 835
GlyphClass: 1
Flags: W
LayerCount: 2
Fore
SplineSet
501 0 m 1,0,-1
 277 373 l 1,1,-1
 277 188 l 1,2,-1
 327 188 l 1,3,-1
 327 0 l 1,4,-1
 -2 0 l 1,5,-1
 -2 188 l 1,6,-1
 48 188 l 1,7,-1
 48 646 l 1,8,-1
 -2 646 l 1,9,-1
 -2 834 l 1,10,-1
 269 834 l 1,11,-1
 498 452 l 1,12,-1
 498 646 l 1,13,-1
 448 646 l 1,14,-1
 448 834 l 1,15,-1
 777 834 l 1,16,-1
 777 646 l 1,17,-1
 727 646 l 1,18,-1
 727 188 l 1,19,-1
 777 188 l 1,20,-1
 777 0 l 1,21,-1
 501 0 l 1,0,-1
EndSplineSet
Validated: 1
EndChar

StartChar: O
Encoding: 79 79 41
Width: 694
GlyphClass: 1
Flags: W
LayerCount: 2
Fore
SplineSet
-2 700 m 1,0,-1
 131 834 l 1,1,-1
 498 834 l 1,2,-1
 631 700 l 1,3,-1
 631 133 l 1,4,-1
 498 0 l 1,5,-1
 131 0 l 1,6,-1
 -2 133 l 1,7,-1
 -2 700 l 1,0,-1
402 619 m 1,8,-1
 376 646 l 1,9,-1
 254 646 l 1,10,-1
 227 619 l 1,11,-1
 227 214 l 1,12,-1
 254 188 l 1,13,-1
 376 188 l 1,14,-1
 402 214 l 1,15,-1
 402 619 l 1,8,-1
EndSplineSet
Validated: 1
EndChar

StartChar: P
Encoding: 80 80 42
Width: 710
GlyphClass: 1
Flags: W
LayerCount: 2
Fore
SplineSet
514 316 m 1,0,-1
 277 316 l 1,1,-1
 277 188 l 1,2,-1
 327 188 l 1,3,-1
 327 0 l 1,4,-1
 -2 0 l 1,5,-1
 -2 188 l 1,6,-1
 48 188 l 1,7,-1
 48 646 l 1,8,-1
 -2 646 l 1,9,-1
 -2 834 l 1,10,-1
 514 834 l 1,11,-1
 647 700 l 1,12,-1
 647 449 l 1,13,-1
 514 316 l 1,0,-1
277 504 m 1,14,-1
 391 504 l 1,15,-1
 418 530 l 1,16,-1
 418 619 l 1,17,-1
 391 646 l 1,18,-1
 277 646 l 1,19,-1
 277 504 l 1,14,-1
EndSplineSet
Validated: 1
EndChar

StartChar: Q
Encoding: 81 81 43
Width: 713
GlyphClass: 1
Flags: W
LayerCount: 2
Fore
SplineSet
-2 700 m 1,0,-1
 131 834 l 1,1,-1
 498 834 l 1,2,-1
 631 700 l 1,3,-1
 631 238 l 1,4,-1
 719 151 l 1,5,-1
 592 24 l 1,6,-1
 557 59 l 1,7,-1
 498 0 l 1,8,-1
 131 0 l 1,9,-1
 -2 133 l 1,10,-1
 -2 700 l 1,0,-1
402 619 m 1,11,-1
 376 646 l 1,12,-1
 254 646 l 1,13,-1
 227 619 l 1,14,-1
 227 214 l 1,15,-1
 254 188 l 1,16,-1
 376 188 l 1,17,-1
 402 214 l 1,18,-1
 266 351 l 1,19,-1
 392 478 l 1,20,-1
 402 468 l 1,21,-1
 402 619 l 1,11,-1
EndSplineSet
Validated: 1
EndChar

StartChar: R
Encoding: 82 82 44
Width: 754
GlyphClass: 1
Flags: W
LayerCount: 2
Fore
SplineSet
277 188 m 1,0,-1
 327 188 l 1,1,-1
 327 0 l 1,2,-1
 -2 0 l 1,3,-1
 -2 188 l 1,4,-1
 48 188 l 1,5,-1
 48 646 l 1,6,-1
 -2 646 l 1,7,-1
 -2 834 l 1,8,-1
 514 834 l 1,9,-1
 647 700 l 1,10,-1
 647 487 l 1,11,-1
 592 432 l 1,12,-1
 647 378 l 1,13,-1
 647 188 l 1,14,-1
 697 188 l 1,15,-1
 697 0 l 1,16,-1
 418 0 l 1,17,-1
 418 310 l 1,18,-1
 391 337 l 1,19,-1
 277 337 l 1,20,-1
 277 188 l 1,0,-1
277 525 m 1,21,-1
 391 525 l 1,22,-1
 418 552 l 1,23,-1
 418 619 l 1,24,-1
 391 646 l 1,25,-1
 277 646 l 1,26,-1
 277 525 l 1,21,-1
EndSplineSet
Validated: 1
EndChar

StartChar: S
Encoding: 83 83 45
Width: 689
GlyphClass: 1
Flags: W
LayerCount: 2
Fore
SplineSet
376 321 m 1,0,-1
 131 321 l 1,1,-1
 -2 454 l 1,2,-1
 -2 700 l 1,3,-1
 131 834 l 1,4,-1
 498 834 l 1,5,-1
 631 700 l 1,6,-1
 631 536 l 1,7,-1
 402 536 l 1,8,-1
 402 619 l 1,9,-1
 376 646 l 1,10,-1
 254 646 l 1,11,-1
 227 619 l 1,12,-1
 227 535 l 1,13,-1
 254 509 l 1,14,-1
 498 509 l 1,15,-1
 631 375 l 1,16,-1
 631 133 l 1,17,-1
 498 0 l 1,18,-1
 131 0 l 1,19,-1
 -2 133 l 1,20,-1
 -2 293 l 1,21,-1
 227 293 l 1,22,-1
 227 215 l 1,23,-1
 254 188 l 1,24,-1
 376 188 l 1,25,-1
 402 214 l 1,26,-1
 402 294 l 1,27,-1
 376 321 l 1,0,-1
EndSplineSet
Validated: 1
EndChar

StartChar: T
Encoding: 84 84 46
Width: 746
GlyphClass: 1
Flags: W
LayerCount: 2
Fore
SplineSet
702 596 m 1,0,-1
 515 596 l 1,1,-1
 515 646 l 1,2,-1
 465 646 l 1,3,-1
 465 188 l 1,4,-1
 515 188 l 1,5,-1
 515 0 l 1,6,-1
 185 0 l 1,7,-1
 185 188 l 1,8,-1
 236 188 l 1,9,-1
 236 646 l 1,10,-1
 185 646 l 1,11,-1
 185 596 l 1,12,-1
 -2 596 l 1,13,-1
 -2 834 l 1,14,-1
 702 834 l 1,15,-1
 702 596 l 1,0,-1
EndSplineSet
Validated: 1
EndChar

StartChar: U
Encoding: 85 85 47
Width: 789
GlyphClass: 1
Flags: W
LayerCount: 2
Fore
SplineSet
681 134 m 1,0,-1
 548 0 l 1,1,-1
 181 0 l 1,2,-1
 48 133 l 1,3,-1
 48 646 l 1,4,-1
 -2 646 l 1,5,-1
 -2 834 l 1,6,-1
 327 834 l 1,7,-1
 327 646 l 1,8,-1
 277 646 l 1,9,-1
 277 214 l 1,10,-1
 304 188 l 1,11,-1
 426 188 l 1,12,-1
 452 214 l 1,13,-1
 452 646 l 1,14,-1
 402 646 l 1,15,-1
 402 834 l 1,16,-1
 731 834 l 1,17,-1
 731 647 l 1,18,-1
 681 647 l 1,19,-1
 681 134 l 1,0,-1
EndSplineSet
Validated: 1
EndChar

StartChar: V
Encoding: 86 86 48
Width: 853
GlyphClass: 1
Flags: W
LayerCount: 2
Fore
SplineSet
491 646 m 1,0,-1
 464 646 l 1,1,-1
 464 834 l 1,2,-1
 809 834 l 1,3,-1
 809 647 l 1,4,-1
 734 647 l 1,5,-1
 581 188 l 1,6,-1
 624 188 l 1,7,-1
 624 0 l 1,8,-1
 181 0 l 1,9,-1
 181 188 l 1,10,-1
 217 188 l 1,11,-1
 65 646 l 1,12,-1
 -2 646 l 1,13,-1
 -2 834 l 1,14,-1
 334 834 l 1,15,-1
 334 646 l 1,16,-1
 306 646 l 1,17,-1
 399 368 l 1,18,-1
 491 646 l 1,0,-1
EndSplineSet
Validated: 1
EndChar

StartChar: W
Encoding: 87 87 49
Width: 1356
GlyphClass: 1
Flags: W
LayerCount: 2
Fore
SplineSet
589 188 m 1,0,-1
 616 188 l 1,1,-1
 616 0 l 1,2,-1
 190 0 l 1,3,-1
 190 188 l 1,4,-1
 217 188 l 1,5,-1
 65 646 l 1,6,-1
 -2 646 l 1,7,-1
 -2 834 l 1,8,-1
 346 834 l 1,9,-1
 346 646 l 1,10,-1
 313 646 l 1,11,-1
 405 371 l 1,12,-1
 496 646 l 1,13,-1
 469 646 l 1,14,-1
 469 834 l 1,15,-1
 841 834 l 1,16,-1
 841 646 l 1,17,-1
 815 646 l 1,18,-1
 906 371 l 1,19,-1
 998 646 l 1,20,-1
 971 646 l 1,21,-1
 971 834 l 1,22,-1
 1312 834 l 1,23,-1
 1312 647 l 1,24,-1
 1246 647 l 1,25,-1
 1094 188 l 1,26,-1
 1121 188 l 1,27,-1
 1121 0 l 1,28,-1
 695 0 l 1,29,-1
 695 188 l 1,30,-1
 722 188 l 1,31,-1
 656 388 l 1,32,-1
 589 188 l 1,0,-1
EndSplineSet
Validated: 1
EndChar

StartChar: X
Encoding: 88 88 50
Width: 955
GlyphClass: 1
Flags: W
LayerCount: 2
Fore
SplineSet
461 288 m 1,0,-1
 361 188 l 1,1,-1
 394 188 l 1,2,-1
 394 0 l 1,3,-1
 -2 0 l 1,4,-1
 -2 188 l 1,5,-1
 76 188 l 1,6,-1
 306 417 l 1,7,-1
 76 646 l 1,8,-1
 -2 646 l 1,9,-1
 -2 834 l 1,10,-1
 394 834 l 1,11,-1
 394 646 l 1,12,-1
 361 646 l 1,13,-1
 461 546 l 1,14,-1
 561 646 l 1,15,-1
 527 646 l 1,16,-1
 527 834 l 1,17,-1
 911 834 l 1,18,-1
 911 647 l 1,19,-1
 845 647 l 1,20,-1
 616 417 l 1,21,-1
 845 188 l 1,22,-1
 911 188 l 1,23,-1
 911 0 l 1,24,-1
 527 0 l 1,25,-1
 527 188 l 1,26,-1
 561 188 l 1,27,-1
 461 288 l 1,0,-1
EndSplineSet
Validated: 1
EndChar

StartChar: Y
Encoding: 89 89 51
Width: 955
GlyphClass: 1
Flags: W
LayerCount: 2
Fore
SplineSet
575 376 m 1,0,-1
 575 188 l 1,1,-1
 625 188 l 1,2,-1
 625 0 l 1,3,-1
 296 0 l 1,4,-1
 296 188 l 1,5,-1
 347 188 l 1,6,-1
 347 376 l 1,7,-1
 76 646 l 1,8,-1
 -2 646 l 1,9,-1
 -2 834 l 1,10,-1
 395 834 l 1,11,-1
 395 646 l 1,12,-1
 361 646 l 1,13,-1
 461 546 l 1,14,-1
 561 646 l 1,15,-1
 527 646 l 1,16,-1
 527 834 l 1,17,-1
 911 834 l 1,18,-1
 911 647 l 1,19,-1
 845 647 l 1,20,-1
 575 376 l 1,0,-1
EndSplineSet
Validated: 1
EndChar

StartChar: Z
Encoding: 90 90 52
Width: 679
GlyphClass: 1
Flags: W
LayerCount: 2
Fore
SplineSet
296 188 m 1,0,-1
 433 188 l 1,1,-1
 433 238 l 1,2,-1
 620 238 l 1,3,-1
 620 0 l 1,4,-1
 -2 0 l 1,5,-1
 -2 158 l 1,6,-1
 323 646 l 1,7,-1
 185 646 l 1,8,-1
 185 596 l 1,9,-1
 -2 596 l 1,10,-1
 -2 834 l 1,11,-1
 620 834 l 1,12,-1
 620 675 l 1,13,-1
 296 188 l 1,0,-1
EndSplineSet
Validated: 1
EndChar

StartChar: a
Encoding: 97 97 53
Width: 706
GlyphClass: 1
Flags: W
LayerCount: 2
Fore
SplineSet
510 667 m 1,0,-1
 510 517 l 1,1,-1
 476 517 l 1,2,-1
 623 150 l 1,3,-1
 663 150 l 1,4,-1
 663 0 l 1,5,-1
 406 0 l 1,6,-1
 406 150 l 1,7,-1
 429 150 l 1,8,-1
 419 181 l 1,9,-1
 242 181 l 1,10,-1
 231 150 l 1,11,-1
 253 150 l 1,12,-1
 253 0 l 1,13,-1
 -2 0 l 1,14,-1
 -2 150 l 1,15,-1
 38 150 l 1,16,-1
 185 517 l 1,17,-1
 156 517 l 1,18,-1
 156 667 l 1,19,-1
 510 667 l 1,0,-1
287 309 m 1,20,-1
 373 309 l 1,21,-1
 330 413 l 1,22,-1
 287 309 l 1,20,-1
EndSplineSet
Validated: 1
EndChar

StartChar: b
Encoding: 98 98 54
Width: 574
GlyphClass: 1
Flags: W
LayerCount: 2
Fore
SplineSet
517 302 m 1,0,-1
 517 107 l 1,1,-1
 411 0 l 1,2,-1
 -2 0 l 1,3,-1
 -2 150 l 1,4,-1
 38 150 l 1,5,-1
 38 517 l 1,6,-1
 -2 517 l 1,7,-1
 -2 667 l 1,8,-1
 411 667 l 1,9,-1
 517 560 l 1,10,-1
 517 389 l 1,11,-1
 473 345 l 1,12,-1
 517 302 l 1,0,-1
334 248 m 1,13,-1
 313 270 l 1,14,-1
 221 270 l 1,15,-1
 221 150 l 1,16,-1
 313 150 l 1,17,-1
 334 172 l 1,18,-1
 334 248 l 1,13,-1
334 495 m 1,19,-1
 313 517 l 1,20,-1
 221 517 l 1,21,-1
 221 420 l 1,22,-1
 313 420 l 1,23,-1
 334 442 l 1,24,-1
 334 495 l 1,19,-1
EndSplineSet
Validated: 1
EndChar

StartChar: c
Encoding: 99 99 55
Width: 561
GlyphClass: 1
Flags: W
LayerCount: 2
Fore
SplineSet
505 411 m 1,0,-1
 322 411 l 1,1,-1
 322 495 l 1,2,-1
 300 517 l 1,3,-1
 203 517 l 1,4,-1
 181 495 l 1,5,-1
 181 172 l 1,6,-1
 203 150 l 1,7,-1
 300 150 l 1,8,-1
 322 172 l 1,9,-1
 322 252 l 1,10,-1
 505 252 l 1,11,-1
 505 107 l 1,12,-1
 398 0 l 1,13,-1
 105 0 l 1,14,-1
 -2 107 l 1,15,-1
 -2 560 l 1,16,-1
 105 667 l 1,17,-1
 398 667 l 1,18,-1
 505 560 l 1,19,-1
 505 411 l 1,0,-1
EndSplineSet
Validated: 1
EndChar

StartChar: d
Encoding: 100 100 56
Width: 575
GlyphClass: 1
Flags: W
LayerCount: 2
Fore
SplineSet
-2 667 m 1,0,-1
 411 667 l 1,1,-1
 517 560 l 1,2,-1
 517 107 l 1,3,-1
 411 0 l 1,4,-1
 -2 0 l 1,5,-1
 -2 150 l 1,6,-1
 38 150 l 1,7,-1
 38 517 l 1,8,-1
 -2 517 l 1,9,-1
 -2 667 l 1,0,-1
221 150 m 1,10,-1
 313 150 l 1,11,-1
 334 172 l 1,12,-1
 334 495 l 1,13,-1
 313 517 l 1,14,-1
 221 517 l 1,15,-1
 221 150 l 1,10,-1
EndSplineSet
Validated: 1
EndChar

StartChar: e
Encoding: 101 101 57
Width: 546
GlyphClass: 1
Flags: W
LayerCount: 2
Fore
SplineSet
221 150 m 1,0,-1
 338 150 l 1,1,-1
 338 177 l 1,2,-1
 488 177 l 1,3,-1
 488 0 l 1,4,-1
 -2 0 l 1,5,-1
 -2 150 l 1,6,-1
 38 150 l 1,7,-1
 38 517 l 1,8,-1
 -2 517 l 1,9,-1
 -2 667 l 1,10,-1
 488 667 l 1,11,-1
 488 490 l 1,12,-1
 338 490 l 1,13,-1
 338 517 l 1,14,-1
 221 517 l 1,15,-1
 221 408 l 1,16,-1
 248 408 l 1,17,-1
 248 435 l 1,18,-1
 398 435 l 1,19,-1
 398 231 l 1,20,-1
 248 231 l 1,21,-1
 248 258 l 1,22,-1
 221 258 l 1,23,-1
 221 150 l 1,0,-1
EndSplineSet
Validated: 1
EndChar

StartChar: f
Encoding: 102 102 58
Width: 532
GlyphClass: 1
Flags: W
LayerCount: 2
Fore
SplineSet
248 258 m 1,0,-1
 221 258 l 1,1,-1
 221 150 l 1,2,-1
 298 150 l 1,3,-1
 298 0 l 1,4,-1
 -2 0 l 1,5,-1
 -2 150 l 1,6,-1
 38 150 l 1,7,-1
 38 517 l 1,8,-1
 -2 517 l 1,9,-1
 -2 667 l 1,10,-1
 488 667 l 1,11,-1
 488 490 l 1,12,-1
 338 490 l 1,13,-1
 338 517 l 1,14,-1
 221 517 l 1,15,-1
 221 408 l 1,16,-1
 248 408 l 1,17,-1
 248 435 l 1,18,-1
 398 435 l 1,19,-1
 398 231 l 1,20,-1
 248 231 l 1,21,-1
 248 258 l 1,0,-1
EndSplineSet
Validated: 1
EndChar

StartChar: g
Encoding: 103 103 59
Width: 563
GlyphClass: 1
Flags: W
LayerCount: 2
Fore
SplineSet
505 371 m 1,0,-1
 505 107 l 1,1,-1
 398 0 l 1,2,-1
 105 0 l 1,3,-1
 -2 107 l 1,4,-1
 -2 560 l 1,5,-1
 105 667 l 1,6,-1
 398 667 l 1,7,-1
 505 560 l 1,8,-1
 505 412 l 1,9,-1
 321 412 l 1,10,-1
 321 495 l 1,11,-1
 300 517 l 1,12,-1
 203 517 l 1,13,-1
 181 495 l 1,14,-1
 181 172 l 1,15,-1
 203 150 l 1,16,-1
 300 150 l 1,17,-1
 322 172 l 1,18,-1
 322 234 l 1,19,-1
 271 234 l 1,20,-1
 271 371 l 1,21,-1
 505 371 l 1,0,-1
EndSplineSet
Validated: 1
EndChar

StartChar: h
Encoding: 104 104 60
Width: 633
GlyphClass: 1
Flags: W
LayerCount: 2
Fore
SplineSet
352 150 m 1,0,-1
 352 261 l 1,1,-1
 221 261 l 1,2,-1
 221 150 l 1,3,-1
 261 150 l 1,4,-1
 261 0 l 1,5,-1
 -2 0 l 1,6,-1
 -2 150 l 1,7,-1
 38 150 l 1,8,-1
 38 517 l 1,9,-1
 -2 517 l 1,10,-1
 -2 667 l 1,11,-1
 261 667 l 1,12,-1
 261 517 l 1,13,-1
 221 517 l 1,14,-1
 221 425 l 1,15,-1
 352 425 l 1,16,-1
 352 517 l 1,17,-1
 311 517 l 1,18,-1
 311 667 l 1,19,-1
 575 667 l 1,20,-1
 575 517 l 1,21,-1
 535 517 l 1,22,-1
 535 150 l 1,23,-1
 575 150 l 1,24,-1
 575 0 l 1,25,-1
 311 0 l 1,26,-1
 311 150 l 1,27,-1
 352 150 l 1,0,-1
EndSplineSet
Validated: 1
EndChar

StartChar: i
Encoding: 105 105 61
Width: 319
GlyphClass: 1
Flags: W
LayerCount: 2
Fore
SplineSet
261 0 m 1,0,-1
 -2 0 l 1,1,-1
 -2 150 l 1,2,-1
 38 150 l 1,3,-1
 38 517 l 1,4,-1
 -2 517 l 1,5,-1
 -2 667 l 1,6,-1
 261 667 l 1,7,-1
 261 517 l 1,8,-1
 221 517 l 1,9,-1
 221 150 l 1,10,-1
 261 150 l 1,11,-1
 261 0 l 1,0,-1
EndSplineSet
Validated: 1
EndChar

StartChar: j
Encoding: 106 106 62
Width: 553
GlyphClass: 1
Flags: W
LayerCount: 2
Fore
SplineSet
455 517 m 1,0,-1
 455 107 l 1,1,-1
 348 0 l 1,2,-1
 105 0 l 1,3,-1
 -2 107 l 1,4,-1
 -2 268 l 1,5,-1
 181 268 l 1,6,-1
 181 172 l 1,7,-1
 203 150 l 1,8,-1
 250 150 l 1,9,-1
 272 172 l 1,10,-1
 272 517 l 1,11,-1
 215 517 l 1,12,-1
 215 667 l 1,13,-1
 495 667 l 1,14,-1
 495 517 l 1,15,-1
 455 517 l 1,0,-1
EndSplineSet
Validated: 1
EndChar

StartChar: k
Encoding: 107 107 63
Width: 673
GlyphClass: 1
Flags: W
LayerCount: 2
Fore
SplineSet
221 150 m 1,0,-1
 261 150 l 1,1,-1
 261 0 l 1,2,-1
 -2 0 l 1,3,-1
 -2 150 l 1,4,-1
 38 150 l 1,5,-1
 38 517 l 1,6,-1
 -2 517 l 1,7,-1
 -2 667 l 1,8,-1
 261 667 l 1,9,-1
 261 517 l 1,10,-1
 221 517 l 1,11,-1
 221 422 l 1,12,-1
 316 517 l 1,13,-1
 299 517 l 1,14,-1
 299 667 l 1,15,-1
 616 667 l 1,16,-1
 616 517 l 1,17,-1
 561 517 l 1,18,-1
 380 336 l 1,19,-1
 566 150 l 1,20,-1
 616 150 l 1,21,-1
 616 0 l 1,22,-1
 299 0 l 1,23,-1
 299 150 l 1,24,-1
 317 150 l 1,25,-1
 253 214 l 1,26,-1
 221 183 l 1,27,-1
 221 150 l 1,0,-1
EndSplineSet
Validated: 1
EndChar

StartChar: l
Encoding: 108 108 64
Width: 535
GlyphClass: 1
Flags: W
LayerCount: 2
Fore
SplineSet
221 517 m 1,0,-1
 221 150 l 1,1,-1
 341 150 l 1,2,-1
 341 190 l 1,3,-1
 491 190 l 1,4,-1
 491 0 l 1,5,-1
 -2 0 l 1,6,-1
 -2 150 l 1,7,-1
 38 150 l 1,8,-1
 38 517 l 1,9,-1
 -2 517 l 1,10,-1
 -2 667 l 1,11,-1
 261 667 l 1,12,-1
 261 517 l 1,13,-1
 221 517 l 1,0,-1
EndSplineSet
Validated: 1
EndChar

StartChar: m
Encoding: 109 109 65
Width: 793
GlyphClass: 1
Flags: W
LayerCount: 2
Fore
SplineSet
366 82 m 1,0,-1
 221 323 l 1,1,-1
 221 150 l 1,2,-1
 261 150 l 1,3,-1
 261 0 l 1,4,-1
 -2 0 l 1,5,-1
 -2 150 l 1,6,-1
 38 150 l 1,7,-1
 38 517 l 1,8,-1
 -2 517 l 1,9,-1
 -2 667 l 1,10,-1
 212 667 l 1,11,-1
 366 408 l 1,12,-1
 521 667 l 1,13,-1
 736 667 l 1,14,-1
 736 517 l 1,15,-1
 695 517 l 1,16,-1
 695 150 l 1,17,-1
 736 150 l 1,18,-1
 736 0 l 1,19,-1
 472 0 l 1,20,-1
 472 150 l 1,21,-1
 512 150 l 1,22,-1
 512 323 l 1,23,-1
 366 82 l 1,0,-1
EndSplineSet
Validated: 1
EndChar

StartChar: n
Encoding: 110 110 66
Width: 679
GlyphClass: 1
Flags: W
LayerCount: 2
Fore
SplineSet
401 0 m 1,0,-1
 221 298 l 1,1,-1
 221 150 l 1,2,-1
 261 150 l 1,3,-1
 261 0 l 1,4,-1
 -2 0 l 1,5,-1
 -2 150 l 1,6,-1
 38 150 l 1,7,-1
 38 517 l 1,8,-1
 -2 517 l 1,9,-1
 -2 667 l 1,10,-1
 215 667 l 1,11,-1
 398 362 l 1,12,-1
 398 517 l 1,13,-1
 358 517 l 1,14,-1
 358 667 l 1,15,-1
 621 667 l 1,16,-1
 621 517 l 1,17,-1
 581 517 l 1,18,-1
 581 150 l 1,19,-1
 621 150 l 1,20,-1
 621 0 l 1,21,-1
 401 0 l 1,0,-1
EndSplineSet
Validated: 1
EndChar

StartChar: o
Encoding: 111 111 67
Width: 563
GlyphClass: 1
Flags: W
LayerCount: 2
Fore
SplineSet
-2 560 m 1,0,-1
 105 667 l 1,1,-1
 398 667 l 1,2,-1
 505 560 l 1,3,-1
 505 107 l 1,4,-1
 398 0 l 1,5,-1
 105 0 l 1,6,-1
 -2 107 l 1,7,-1
 -2 560 l 1,0,-1
322 495 m 1,8,-1
 300 517 l 1,9,-1
 203 517 l 1,10,-1
 181 495 l 1,11,-1
 181 172 l 1,12,-1
 203 150 l 1,13,-1
 300 150 l 1,14,-1
 322 172 l 1,15,-1
 322 495 l 1,8,-1
EndSplineSet
Validated: 1
EndChar

StartChar: p
Encoding: 112 112 68
Width: 588
GlyphClass: 1
Flags: W
LayerCount: 2
Fore
SplineSet
411 253 m 1,0,-1
 221 253 l 1,1,-1
 221 150 l 1,2,-1
 261 150 l 1,3,-1
 261 0 l 1,4,-1
 -2 0 l 1,5,-1
 -2 150 l 1,6,-1
 38 150 l 1,7,-1
 38 517 l 1,8,-1
 -2 517 l 1,9,-1
 -2 667 l 1,10,-1
 411 667 l 1,11,-1
 517 560 l 1,12,-1
 517 359 l 1,13,-1
 411 253 l 1,0,-1
221 403 m 1,14,-1
 313 403 l 1,15,-1
 334 424 l 1,16,-1
 334 495 l 1,17,-1
 313 517 l 1,18,-1
 221 517 l 1,19,-1
 221 403 l 1,14,-1
EndSplineSet
Validated: 1
EndChar

StartChar: q
Encoding: 113 113 69
Width: 574
GlyphClass: 1
Flags: W
LayerCount: 2
Fore
SplineSet
-2 560 m 1,0,-1
 105 667 l 1,1,-1
 398 667 l 1,2,-1
 505 560 l 1,3,-1
 505 191 l 1,4,-1
 575 121 l 1,5,-1
 473 19 l 1,6,-1
 446 48 l 1,7,-1
 398 0 l 1,8,-1
 105 0 l 1,9,-1
 -2 107 l 1,10,-1
 -2 560 l 1,0,-1
322 495 m 1,11,-1
 300 517 l 1,12,-1
 203 517 l 1,13,-1
 181 495 l 1,14,-1
 181 172 l 1,15,-1
 203 150 l 1,16,-1
 300 150 l 1,17,-1
 322 172 l 1,18,-1
 212 281 l 1,19,-1
 313 382 l 1,20,-1
 322 374 l 1,21,-1
 322 495 l 1,11,-1
EndSplineSet
Validated: 1
EndChar

StartChar: r
Encoding: 114 114 70
Width: 614
GlyphClass: 1
Flags: W
LayerCount: 2
Fore
SplineSet
221 150 m 1,0,-1
 261 150 l 1,1,-1
 261 0 l 1,2,-1
 -2 0 l 1,3,-1
 -2 150 l 1,4,-1
 38 150 l 1,5,-1
 38 517 l 1,6,-1
 -2 517 l 1,7,-1
 -2 667 l 1,8,-1
 411 667 l 1,9,-1
 517 560 l 1,10,-1
 517 389 l 1,11,-1
 473 345 l 1,12,-1
 517 302 l 1,13,-1
 517 150 l 1,14,-1
 557 150 l 1,15,-1
 557 0 l 1,16,-1
 334 0 l 1,17,-1
 334 248 l 1,18,-1
 313 270 l 1,19,-1
 221 270 l 1,20,-1
 221 150 l 1,0,-1
221 420 m 1,21,-1
 313 420 l 1,22,-1
 334 442 l 1,23,-1
 334 495 l 1,24,-1
 313 517 l 1,25,-1
 221 517 l 1,26,-1
 221 420 l 1,21,-1
EndSplineSet
Validated: 1
EndChar

StartChar: s
Encoding: 115 115 71
Width: 563
GlyphClass: 1
Flags: W
LayerCount: 2
Fore
SplineSet
301 257 m 1,0,-1
 106 257 l 1,1,-1
 -2 363 l 1,2,-1
 -2 560 l 1,3,-1
 105 667 l 1,4,-1
 398 667 l 1,5,-1
 505 560 l 1,6,-1
 505 428 l 1,7,-1
 322 428 l 1,8,-1
 322 495 l 1,9,-1
 300 517 l 1,10,-1
 203 517 l 1,11,-1
 181 495 l 1,12,-1
 181 428 l 1,13,-1
 203 407 l 1,14,-1
 398 407 l 1,15,-1
 505 300 l 1,16,-1
 505 107 l 1,17,-1
 398 0 l 1,18,-1
 105 0 l 1,19,-1
 -2 107 l 1,20,-1
 -2 235 l 1,21,-1
 181 235 l 1,22,-1
 181 172 l 1,23,-1
 203 150 l 1,24,-1
 300 150 l 1,25,-1
 322 172 l 1,26,-1
 322 235 l 1,27,-1
 301 257 l 1,0,-1
EndSplineSet
Validated: 1
EndChar

StartChar: t
Encoding: 116 116 72
Width: 604
GlyphClass: 1
Flags: W
LayerCount: 2
Fore
SplineSet
561 476 m 1,0,-1
 411 476 l 1,1,-1
 411 516 l 1,2,-1
 370 517 l 1,3,-1
 370 151 l 1,4,-1
 411 151 l 1,5,-1
 411 1 l 1,6,-1
 148 1 l 1,7,-1
 148 151 l 1,8,-1
 188 151 l 1,9,-1
 188 516 l 1,10,-1
 148 516 l 1,11,-1
 148 476 l 1,12,-1
 -2 476 l 1,13,-1
 -2 667 l 1,14,-1
 561 667 l 1,15,-1
 561 476 l 1,0,-1
EndSplineSet
Validated: 1
EndChar

StartChar: u
Encoding: 117 117 73
Width: 629
GlyphClass: 1
Flags: W
LayerCount: 2
Fore
SplineSet
545 107 m 1,0,-1
 438 0 l 1,1,-1
 145 0 l 1,2,-1
 38 107 l 1,3,-1
 38 517 l 1,4,-1
 -2 517 l 1,5,-1
 -2 667 l 1,6,-1
 261 667 l 1,7,-1
 261 517 l 1,8,-1
 221 517 l 1,9,-1
 221 172 l 1,10,-1
 243 150 l 1,11,-1
 340 150 l 1,12,-1
 362 172 l 1,13,-1
 362 517 l 1,14,-1
 321 517 l 1,15,-1
 321 667 l 1,16,-1
 585 667 l 1,17,-1
 585 517 l 1,18,-1
 545 517 l 1,19,-1
 545 107 l 1,0,-1
EndSplineSet
Validated: 1
EndChar

StartChar: v
Encoding: 118 118 74
Width: 690
GlyphClass: 1
Flags: W
LayerCount: 2
Fore
SplineSet
393 517 m 1,0,-1
 371 517 l 1,1,-1
 371 667 l 1,2,-1
 646 667 l 1,3,-1
 646 517 l 1,4,-1
 586 517 l 1,5,-1
 465 150 l 1,6,-1
 499 150 l 1,7,-1
 499 0 l 1,8,-1
 144 0 l 1,9,-1
 144 150 l 1,10,-1
 173 150 l 1,11,-1
 51 517 l 1,12,-1
 -2 517 l 1,13,-1
 -2 667 l 1,14,-1
 266 667 l 1,15,-1
 266 517 l 1,16,-1
 245 517 l 1,17,-1
 319 295 l 1,18,-1
 393 517 l 1,0,-1
EndSplineSet
EndChar

StartChar: w
Encoding: 119 119 75
Width: 1093
GlyphClass: 1
Flags: W
LayerCount: 2
Fore
SplineSet
471 150 m 1,0,-1
 493 150 l 1,1,-1
 493 0 l 1,2,-1
 151 0 l 1,3,-1
 151 150 l 1,4,-1
 173 150 l 1,5,-1
 51 517 l 1,6,-1
 -2 517 l 1,7,-1
 -2 667 l 1,8,-1
 276 667 l 1,9,-1
 276 517 l 1,10,-1
 250 517 l 1,11,-1
 323 297 l 1,12,-1
 396 517 l 1,13,-1
 375 517 l 1,14,-1
 375 667 l 1,15,-1
 673 667 l 1,16,-1
 673 517 l 1,17,-1
 651 517 l 1,18,-1
 725 297 l 1,19,-1
 798 517 l 1,20,-1
 776 517 l 1,21,-1
 776 667 l 1,22,-1
 1050 667 l 1,23,-1
 1050 517 l 1,24,-1
 996 517 l 1,25,-1
 875 150 l 1,26,-1
 896 150 l 1,27,-1
 896 0 l 1,28,-1
 556 0 l 1,29,-1
 556 150 l 1,30,-1
 577 150 l 1,31,-1
 524 310 l 1,32,-1
 471 150 l 1,0,-1
EndSplineSet
Validated: 1
EndChar

StartChar: x
Encoding: 120 120 76
Width: 781
GlyphClass: 1
Flags: W
LayerCount: 2
Fore
SplineSet
372 229 m 1,0,-1
 291 150 l 1,1,-1
 319 150 l 1,2,-1
 319 0 l 1,3,-1
 -2 0 l 1,4,-1
 -2 150 l 1,5,-1
 61 150 l 1,6,-1
 247 332 l 1,7,-1
 61 514 l 1,8,-1
 -2 514 l 1,9,-1
 -2 664 l 1,10,-1
 319 664 l 1,11,-1
 319 514 l 1,12,-1
 291 514 l 1,13,-1
 372 434 l 1,14,-1
 454 514 l 1,15,-1
 426 514 l 1,16,-1
 426 664 l 1,17,-1
 737 664 l 1,18,-1
 737 515 l 1,19,-1
 684 515 l 1,20,-1
 498 332 l 1,21,-1
 684 150 l 1,22,-1
 737 150 l 1,23,-1
 737 0 l 1,24,-1
 426 0 l 1,25,-1
 426 150 l 1,26,-1
 454 150 l 1,27,-1
 372 229 l 1,0,-1
EndSplineSet
Validated: 1
EndChar

StartChar: y
Encoding: 121 121 77
Width: 771
GlyphClass: 1
Flags: W
LayerCount: 2
Fore
SplineSet
459 301 m 1,0,-1
 459 151 l 1,1,-1
 499 151 l 1,2,-1
 499 1 l 1,3,-1
 236 1 l 1,4,-1
 236 151 l 1,5,-1
 277 151 l 1,6,-1
 277 301 l 1,7,-1
 61 517 l 1,8,-1
 -2 517 l 1,9,-1
 -2 667 l 1,10,-1
 316 667 l 1,11,-1
 316 517 l 1,12,-1
 289 517 l 1,13,-1
 368 437 l 1,14,-1
 447 517 l 1,15,-1
 421 517 l 1,16,-1
 421 667 l 1,17,-1
 728 667 l 1,18,-1
 728 517 l 1,19,-1
 675 517 l 1,20,-1
 459 301 l 1,0,-1
EndSplineSet
Validated: 1
EndChar

StartChar: z
Encoding: 122 122 78
Width: 554
GlyphClass: 1
Flags: W
LayerCount: 2
Fore
SplineSet
236 150 m 1,0,-1
 346 150 l 1,1,-1
 346 190 l 1,2,-1
 496 190 l 1,3,-1
 496 0 l 1,4,-1
 -2 0 l 1,5,-1
 -2 127 l 1,6,-1
 258 517 l 1,7,-1
 148 517 l 1,8,-1
 148 477 l 1,9,-1
 -2 477 l 1,10,-1
 -2 667 l 1,11,-1
 496 667 l 1,12,-1
 496 540 l 1,13,-1
 236 150 l 1,0,-1
EndSplineSet
Validated: 1
EndChar

StartChar: quoteleft
Encoding: 8216 8216 79
Width: 288
GlyphClass: 1
Flags: W
LayerCount: 2
Fore
SplineSet
149 646 m 1,0,-1
 149 495 l 1,1,-1
 -2 646 l 1,2,-1
 -2 834 l 1,3,-1
 202 834 l 1,4,-1
 202 647 l 1,5,-1
 149 646 l 1,0,-1
EndSplineSet
Validated: 1
EndChar

StartChar: quoteright
Encoding: 8217 8217 80
Width: 288
GlyphClass: 1
Flags: W
LayerCount: 2
Fore
SplineSet
-2 646 m 1,0,-1
 -2 834 l 1,1,-1
 202 834 l 1,2,-1
 202 647 l 1,3,-1
 51 495 l 1,4,-1
 51 646 l 1,5,-1
 -2 646 l 1,0,-1
EndSplineSet
Validated: 1
EndChar

StartChar: quotedblleft
Encoding: 8220 8220 81
Width: 513
GlyphClass: 1
Flags: W
LayerCount: 2
Fore
SplineSet
406 646 m 1,0,-1
 406 495 l 1,1,-1
 256 646 l 1,2,-1
 256 834 l 1,3,-1
 460 834 l 1,4,-1
 460 647 l 1,5,-1
 406 646 l 1,0,-1
149 646 m 1,6,-1
 149 495 l 1,7,-1
 -2 646 l 1,8,-1
 -2 834 l 1,9,-1
 202 834 l 1,10,-1
 202 647 l 1,11,-1
 149 646 l 1,6,-1
EndSplineSet
Validated: 1
EndChar

StartChar: quotedblright
Encoding: 8221 8221 82
Width: 513
GlyphClass: 1
Flags: W
LayerCount: 2
Fore
SplineSet
-2 646 m 1,0,-1
 -2 834 l 1,1,-1
 202 834 l 1,2,-1
 202 647 l 1,3,-1
 51 495 l 1,4,-1
 51 646 l 1,5,-1
 -2 646 l 1,0,-1
256 646 m 1,6,-1
 256 834 l 1,7,-1
 460 834 l 1,8,-1
 460 647 l 1,9,-1
 309 495 l 1,10,-1
 309 646 l 1,11,-1
 256 646 l 1,6,-1
EndSplineSet
Validated: 1
EndChar

StartChar: ydieresis
Encoding: 255 255 85
Width: 300
GlyphClass: 1
Flags: W
LayerCount: 2
Fore
SplineSet
200 781 m 2,0,-1
 148 623 l 2,1,2
 145 612 145 612 136 612 c 0,3,4
 128 612 128 612 128 621 c 2,5,-1
 122 725 l 2,6,7
 122 734 122 734 132 734 c 0,8,9
 141 734 141 734 141 725 c 2,10,-1
 145 677 l 1,11,-1
 181 786 l 2,12,13
 182 793 182 793 190 793 c 0,14,15
 203 793 203 793 200 781 c 2,0,-1
261 602 m 0,16,17
 253 595 253 595 239 595 c 0,18,19
 222 596 222 596 211 596 c 0,20,21
 206 596 206 596 188 594 c 0,22,23
 181 592 181 592 178 595.5 c 128,-1,24
 175 599 175 599 177 606 c 0,25,26
 183 628 183 628 204.5 645 c 128,-1,27
 226 662 226 662 231 676 c 0,28,29
 233 684 233 684 233 688 c 0,30,31
 233 694 233 694 229.5 695.5 c 128,-1,32
 226 697 226 697 218 697 c 0,33,34
 211 697 211 697 207 695 c 128,-1,35
 203 693 203 693 205.5 688 c 128,-1,36
 208 683 208 683 204 678 c 128,-1,37
 200 673 200 673 195 673 c 0,38,39
 189 673 189 673 187.5 678 c 128,-1,40
 186 683 186 683 186 686 c 0,41,42
 186 699 186 699 198 707 c 128,-1,43
 210 715 210 715 225 715 c 0,44,45
 234 715 234 715 243.5 708.5 c 128,-1,46
 253 702 253 702 253 688 c 0,47,48
 253 685 253 685 250 671 c 128,-1,49
 247 657 247 657 227.5 640.5 c 128,-1,50
 208 624 208 624 202 614 c 1,51,52
 210 614 210 614 217.5 613.5 c 128,-1,53
 225 613 225 613 232 613 c 0,54,55
 244 613 244 613 246 616 c 0,56,57
 252 624 252 624 260 616.5 c 128,-1,58
 268 609 268 609 261 602 c 0,16,17
102 630 m 2,59,-1
 60 624 l 2,60,61
 50 623 50 623 50 633 c 2,62,-1
 59 748 l 2,63,64
 59 756 59 756 68 756 c 0,65,66
 79 756 79 756 79 745 c 2,67,-1
 70 645 l 1,68,-1
 100 648 l 2,69,70
 111 650 111 650 111 639 c 0,71,72
 111 630 111 630 102 630 c 2,59,-1
EndSplineSet
Validated: 1
EndChar

StartChar: oacute
Encoding: 243 243 86
Width: 563
Flags: W
LayerCount: 2
Fore
SplineSet
407 743 m 1,0,-1
 353 723 l 1,1,-1
 306 701 l 1,2,-1
 209 701 l 1,3,-1
 187 723 l 1,4,-1
 241 743 l 1,5,-1
 288 765 l 1,6,-1
 385 765 l 1,7,-1
 407 743 l 1,0,-1
-2 560 m 1,8,-1
 105 667 l 1,9,-1
 398 667 l 1,10,-1
 505 560 l 1,11,-1
 505 107 l 1,12,-1
 398 0 l 1,13,-1
 105 0 l 1,14,-1
 -2 107 l 1,15,-1
 -2 560 l 1,8,-1
322 495 m 1,16,-1
 300 517 l 1,17,-1
 203 517 l 1,18,-1
 181 495 l 1,19,-1
 181 172 l 1,20,-1
 203 150 l 1,21,-1
 300 150 l 1,22,-1
 322 172 l 1,23,-1
 322 495 l 1,16,-1
EndSplineSet
EndChar
